<?xml version="1.0" standalone="no"?>
<!DOCTYPE svg PUBLIC "-//W3C//DTD SVG 20010904//EN"
 "http://www.w3.org/TR/2001/REC-SVG-20010904/DTD/svg10.dtd">
<svg version="1.0" xmlns="http://www.w3.org/2000/svg"
 width="1024.000000pt" height="1024.000000pt" viewBox="0 0 1024.000000 1024.000000"
 preserveAspectRatio="xMidYMid meet">

<g transform="translate(0.000000,1024.000000) scale(0.100000,-0.100000)"
fill="#000000" stroke="none">
<path d="M4427 9734 c-10 -3 -17 -10 -15 -15 2 -6 46 -53 98 -106 l95 -96 -45
7 c-66 9 -237 -11 -338 -40 -173 -50 -347 -139 -507 -259 -82 -62 -195 -162
-195 -174 0 -3 42 -14 92 -24 51 -10 97 -22 101 -26 4 -4 -9 -23 -30 -41 -191
-166 -335 -460 -377 -770 -5 -38 -16 -54 -60 -98 -113 -112 -139 -207 -131
-471 4 -124 7 -138 36 -201 54 -118 179 -215 295 -228 l43 -4 -6 96 c-5 88 -4
96 13 101 10 3 39 16 63 28 64 31 79 69 97 229 17 155 39 245 88 351 92 202
224 345 433 470 6 4 -9 -23 -34 -60 -51 -76 -94 -158 -87 -165 10 -11 354 53
420 79 14 5 13 0 -4 -33 -11 -21 -27 -63 -36 -92 -15 -51 -14 -54 2 -47 42 17
578 195 588 195 6 0 24 -53 39 -120 16 -66 32 -119 36 -118 10 5 99 110 117
141 18 29 32 35 32 13 0 -27 70 -153 107 -192 44 -46 100 -94 109 -94 4 0 5
54 2 121 -4 108 -3 117 10 92 8 -15 36 -62 64 -104 74 -116 87 -157 107 -368
11 -111 26 -202 35 -226 21 -49 50 -81 82 -89 23 -6 24 -9 24 -110 l0 -104 58
15 c130 34 243 119 290 221 27 56 27 60 27 273 l0 215 -37 76 c-36 71 -60 99
-155 176 l-28 22 118 -6 c64 -4 117 -4 117 -1 0 4 -19 16 -42 28 -23 12 -81
50 -128 85 -73 53 -94 76 -117 126 -2 4 26 39 63 78 37 39 65 73 62 75 -3 3
-38 15 -79 26 -41 11 -88 31 -105 44 -17 13 -56 65 -86 117 -120 200 -318 464
-461 614 -155 163 -314 267 -502 330 -97 32 -124 37 -225 40 -63 2 -123 1
-133 -2z"/>
<path d="M7178 8965 c-8 -19 -8 -28 2 -40 32 -38 94 1 70 45 -16 29 -58 26
-72 -5z"/>
<path d="M7236 8275 c-75 -31 -109 -64 -149 -145 l-32 -65 0 -1025 0 -1025 26
-56 c33 -69 89 -127 155 -160 l49 -24 1110 0 1110 0 51 27 c60 32 118 93 148
157 l21 46 0 1030 0 1030 -26 55 c-35 74 -67 110 -131 145 l-53 30 -1110 2
-1110 3 -59 -25z m2312 -1514 c-3 -702 -3 -710 -24 -738 -11 -15 -36 -38 -54
-50 l-33 -23 -1051 0 c-1025 0 -1052 1 -1083 20 -71 43 -68 5 -71 793 l-3 707
1161 0 1160 0 -2 -709z"/>
<path d="M8522 7265 c-40 -17 -47 -32 -94 -194 -21 -75 -68 -232 -104 -350
-89 -294 -124 -420 -124 -449 0 -33 51 -82 87 -82 36 0 71 24 85 59 49 124
281 929 274 954 -14 57 -69 84 -124 62z"/>
<path d="M7820 6944 c-98 -99 -184 -192 -189 -207 -6 -16 -8 -40 -5 -53 4 -14
88 -108 188 -210 l181 -185 48 1 c39 0 53 5 72 26 49 52 39 73 -103 218 -70
72 -136 141 -146 153 l-19 23 142 138 c130 128 141 141 141 175 0 51 -33 87
-88 94 l-44 6 -178 -179z"/>
<path d="M8769 7081 c-53 -54 -45 -71 107 -230 l137 -142 -152 -153 c-83 -84
-151 -160 -151 -170 0 -26 28 -74 49 -86 43 -23 88 -12 138 33 66 58 280 280
309 319 49 66 44 75 -202 331 -119 122 -125 127 -164 127 -33 0 -48 -6 -71
-29z"/>
<path d="M2077 6343 c-11 -11 -8 -58 5 -71 28 -28 78 -7 78 33 0 12 -5 26 -12
33 -13 13 -60 16 -71 5z"/>
<path d="M3975 6183 c-112 -28 -749 -390 -1405 -798 -204 -128 -256 -167 -316
-243 -83 -105 -108 -173 -205 -559 -50 -197 -122 -482 -160 -633 -76 -299 -78
-322 -30 -363 27 -22 28 -28 40 -168 44 -537 95 -1056 117 -1184 33 -203 97
-320 214 -396 28 -18 50 -33 50 -35 0 -1 -287 -1 -637 0 -351 1 -729 -1 -841
-4 -187 -5 -205 -7 -218 -24 -23 -33 -18 -89 12 -117 l26 -24 4486 -3 c2468
-2 4511 0 4540 3 35 4 59 14 72 28 26 27 26 87 1 118 l-19 24 -1311 -1 c-721
0 -1311 2 -1311 5 0 3 16 17 35 30 60 41 128 141 159 233 28 85 51 270 86 693
53 644 69 788 92 832 l23 42 -38 153 c-20 84 -87 358 -147 608 -124 510 -145
582 -198 669 -65 109 -134 167 -384 328 -412 265 -986 621 -1138 706 -71 39
-204 87 -243 87 -27 0 -37 -20 -37 -78 0 -44 -36 -78 -132 -125 -163 -80 -299
-110 -498 -110 -152 1 -244 15 -350 54 -75 28 -184 86 -214 114 -25 23 -29 34
-41 108 -5 33 -9 37 -33 36 -15 -1 -36 -4 -47 -6z m-1440 -3453 l0 -810 -21 0
c-22 0 -137 35 -167 52 -36 19 -99 82 -117 118 -45 88 -59 190 -120 905 -17
198 -34 401 -39 450 -4 50 -7 92 -6 95 2 3 108 4 237 2 l233 -3 0 -809z m4718
799 c-1 -8 -16 -178 -33 -379 -83 -982 -88 -1021 -156 -1123 -26 -40 -101
-100 -115 -91 -8 5 -13 1596 -5 1605 2 2 73 4 158 3 125 -1 153 -4 151 -15z
m-2318 -134 c15 -15 25 -36 25 -54 0 -37 -229 -786 -265 -869 -14 -30 -47 -52
-80 -52 -7 0 -27 12 -44 26 -23 19 -31 34 -31 58 0 27 92 335 239 805 11 35
30 74 42 87 31 33 82 32 114 -1z m-552 -107 c33 -17 46 -39 47 -77 0 -31 -14
-48 -132 -168 l-132 -133 126 -128 c135 -136 153 -161 142 -195 -12 -42 -35
-57 -82 -57 -45 0 -46 1 -205 158 -169 167 -193 198 -182 240 7 28 317 348
350 362 28 12 43 12 68 -2z m1023 -161 c178 -179 192 -200 169 -254 -20 -45
-337 -353 -364 -353 -50 0 -90 38 -91 86 0 26 17 47 111 140 61 60 120 122
131 137 l20 29 -125 127 c-69 69 -131 140 -137 156 -21 55 17 103 85 104 26 1
53 -23 201 -172z"/>
</g>
</svg>
